<svg width="512" height="512" viewBox="0 0 512 512" xmlns="http://www.w3.org/2000/svg" role="img" aria-label="v9pv Client logo">
  <defs>
    <linearGradient id="g1" x1="0" x2="1">
      <stop offset="0%" stop-color="#a98bff"/>
      <stop offset="100%" stop-color="#7b3fe4"/>
    </linearGradient>
  </defs>
  <rect width="512" height="512" fill="#0f0b1a"/>
  <g transform="translate(55 40)">
    <rect x="0" y="0" width="402" height="400" rx="28" fill="#1b1530" stroke="#2d2450" stroke-width="12"/>
    <rect x="34" y="32" width="334" height="336" rx="22" fill="#0f0b1a" opacity="0.75"/>
    <path d="M50 248 L80 195 L113 195 L112 122 L178 122 L178 195 L206 195 L220 248 L198 248 L183 292 L112 292 L96 248 Z" fill="#a98bff"/>
    <path d="M160 292 L190 248 L224 248 L224 122 L290 122 L290 195 L322 195 L352 248 L330 248 L315 292 Z" fill="#a98bff"/>
    <text x="200" y="255" text-anchor="middle" font-size="166" font-weight="900" font-family="Arial Black, Arial, sans-serif" fill="#e9defe">V9</text>
  </g>
</svg>
